<svg width="187.000000" height="56.000000" viewBox="0 0 187 56" fill="none" xmlns="http://www.w3.org/2000/svg" xmlns:xlink="http://www.w3.org/1999/xlink">
	<desc>
			Created with Pixso.
	</desc>
	<defs>
		<clipPath id="clip110_7315">
			<rect id="makita-logo 1" rx="0.000000" width="186.000000" height="55.000000" transform="translate(0.500000 0.500000)" fill="white" fill-opacity="0"/>
		</clipPath>
	</defs>
	<rect id="makita-logo 1" rx="0.000000" width="186.000000" height="55.000000" transform="translate(0.500000 0.500000)" fill="#FFFFFF" fill-opacity="0"/>
	<g clip-path="url(#clip110_7315)">
		<path id="Vector" d="M0.03 55.94L186.98 55.94L186.98 0L0.03 0L0.03 55.94Z" fill="#9B99AB" fill-opacity="1.000000" fill-rule="nonzero"/>
		<path id="Vector" d="M135.22 55.99C134.34 55.64 131.89 54.47 131.58 52.16L127.03 56L116.44 55.99C115.4 55.72 113.49 54.84 112.89 52.04L108.52 55.99L99.28 56L95.34 44.15L90.45 56L81.6 56L83.27 52.02C79.72 54.76 78.62 55.71 78.3 56.01L70.78 56C67.95 54.79 67.75 51.99 67.75 51.99C64.08 54.77 62.95 55.7 62.6 56L56.04 56C53.63 54.95 52.86 52.11 52.86 52.11C49.2 54.61 47.07 56 47.07 56L35.15 56L42.22 39.1L35.92 39.1L29.09 55.99L20.3 55.99L28.37 35.15L22.61 35.15L14.03 55.99L5.23 55.99L15.33 31.2L0 31.2L0 24.05L26.86 24.05L25.35 28.24L39.9 28.24L38.26 32.55L52.93 32.55L46.2 49.69L53.06 49.69L58.41 37.37C58.41 37.37 60.47 32.55 65.28 32.55L83.81 32.55L77.23 49.82L84.09 49.82L94.65 24.05L103.02 24.05L96.57 41.06L106.18 32.55L116.2 32.55L104.12 43.52L105.9 49.93L113.32 49.87L120.73 32.41L129.09 32.41L122.37 49.82L131.98 49.82L136.77 38.1L131.13 38.1L133.34 32.43L138.69 32.43L142.39 24.05L151.03 24.05L147.74 32.19L152.83 32.19L150.77 37.99L145.27 37.99L140.75 49.7L150.36 49.7L154.88 38.48C154.88 38.48 156.81 32.69 162.44 32.56L180.54 32.56L173.83 49.69L187 49.69L187 55.99L169.43 55.99C169.43 55.99 165.32 55.5 164.62 52.04L160.36 55.99L154.34 55.99C154.34 55.99 150.49 55.5 149.94 52.04L145.55 55.99L135.22 55.99ZM164.71 49.94L169.36 39.1L163.45 39.1L158.8 49.94L164.71 49.94ZM68.12 49.94L72.78 39.1L66.89 39.1L62.21 49.94L68.12 49.94Z" fill="#FFFFFF" fill-opacity="1.000000" fill-rule="nonzero"/>
		<path id="Vector" d="M121.4 30.41L123.86 24L132.24 24L129.77 30.41L121.4 30.41ZM177.23 20.56L175.89 20.56L175.89 19.38L177.35 19.38C177.63 19.38 178.12 19.42 178.12 19.96C178.12 20.48 177.67 20.56 177.23 20.56ZM178.68 22.02L178.64 21.4C178.62 20.92 178.38 20.83 178.14 20.75C178.4 20.61 178.72 20.43 178.72 19.91C178.72 19.18 178 18.98 177.29 18.98L175.31 18.98L175.31 22.46L175.89 22.46L175.89 20.97L177.29 20.97C178 20.97 178.08 21.3 178.08 21.59C178.08 21.73 178.1 22.25 178.18 22.46L178.9 22.46L178.9 22.39C178.72 22.29 178.68 22.22 178.68 22.02Z" fill="#FFFFFF" fill-opacity="1.000000" fill-rule="nonzero"/>
		<path id="Vector" d="M176.97 23.64C176.13 23.64 175.35 23.33 174.75 22.78C174.15 22.23 173.82 21.5 173.82 20.71C173.82 19.93 174.15 19.19 174.75 18.64C175.35 18.09 176.13 17.79 176.97 17.79C177.81 17.79 178.62 18.09 179.2 18.64C179.8 19.2 180.14 19.93 180.14 20.71C180.13 22.33 178.72 23.64 176.97 23.64ZM179.46 18.41C178.78 17.79 177.91 17.46 176.97 17.46C175.04 17.46 173.47 18.91 173.47 20.71C173.47 21.58 173.82 22.39 174.5 23C175.16 23.62 176.05 23.96 176.97 23.96C177.91 23.96 178.78 23.62 179.46 23C180.11 22.39 180.47 21.58 180.47 20.71C180.47 19.84 180.11 19.02 179.46 18.41Z" fill="#FFFFFF" fill-opacity="1.000000" fill-rule="nonzero"/>
	</g>
</svg>
