<svg width="203.000000" height="56.000000" viewBox="0 0 203 56" fill="none" xmlns="http://www.w3.org/2000/svg" xmlns:xlink="http://www.w3.org/1999/xlink">
	<desc>
			Created with Pixso.
	</desc>
	<defs>
		<clipPath id="clip110_7323">
			<rect id="discord-logo-2 1" rx="0.000000" width="202.000000" height="55.000000" transform="translate(0.500000 0.500000)" fill="white" fill-opacity="0"/>
		</clipPath>
	</defs>
	<rect id="discord-logo-2 1" rx="0.000000" width="202.000000" height="55.000000" transform="translate(0.500000 0.500000)" fill="#FFFFFF" fill-opacity="0"/>
	<g clip-path="url(#clip110_7323)">
		<path id="Vector" d="M29.62 23.52C28.03 23.52 26.77 24.9 26.77 26.61C26.77 28.32 28.06 29.69 29.62 29.69C31.22 29.69 32.48 28.32 32.48 26.61C32.48 24.9 31.19 23.52 29.62 23.52ZM19.41 23.52C17.82 23.52 16.56 24.9 16.56 26.61C16.56 28.32 17.84 29.69 19.41 29.69C21.01 29.69 22.26 28.32 22.26 26.61C22.29 24.9 21.01 23.52 19.41 23.52Z" fill="#9B99AB" fill-opacity="1.000000" fill-rule="nonzero"/>
		<path id="Vector" d="M43.22 0.19L5.73 0.19C2.57 0.19 0 2.77 0 5.94L0 43.52C0 46.69 2.57 49.27 5.73 49.27L37.46 49.27L35.97 44.14L39.55 47.44L42.94 50.56L48.98 55.8L48.98 5.94C48.95 2.77 46.38 0.19 43.22 0.19ZM32.42 36.51C32.42 36.51 31.41 35.3 30.57 34.26C34.24 33.23 35.64 30.95 35.64 30.95C34.49 31.71 33.4 32.25 32.42 32.61C31.02 33.2 29.68 33.56 28.36 33.82C25.68 34.32 23.22 34.18 21.12 33.79C19.52 33.48 18.15 33.06 17 32.58C16.36 32.33 15.66 32.02 14.96 31.63C14.88 31.57 14.79 31.54 14.71 31.49C14.65 31.46 14.63 31.43 14.6 31.43C14.1 31.15 13.82 30.95 13.82 30.95C13.82 30.95 15.16 33.17 18.71 34.24C17.87 35.3 16.84 36.54 16.84 36.54C10.65 36.34 8.3 32.3 8.3 32.3C8.3 23.35 12.33 16.09 12.33 16.09C16.36 13.09 20.17 13.17 20.17 13.17L20.45 13.51C15.41 14.94 13.12 17.16 13.12 17.16C13.12 17.16 13.73 16.82 14.77 16.37C17.76 15.05 20.14 14.72 21.12 14.6C21.29 14.58 21.43 14.55 21.59 14.55C23.3 14.33 25.23 14.27 27.24 14.49C29.9 14.8 32.76 15.59 35.67 17.16C35.67 17.16 33.46 15.05 28.7 13.62L29.09 13.17C29.09 13.17 32.92 13.09 36.92 16.09C36.92 16.09 40.95 23.35 40.95 32.3C40.95 32.27 38.6 36.31 32.42 36.51ZM74.67 12.19L65.38 12.19L65.38 22.65L71.56 28.24L71.56 18.08L74.86 18.08C76.96 18.08 77.99 19.09 77.99 20.72L77.99 28.49C77.99 30.11 77.02 31.21 74.86 31.21L65.35 31.21L65.35 37.12L74.64 37.12C79.62 37.15 84.29 34.66 84.29 28.94L84.29 20.58C84.32 14.75 79.65 12.19 74.67 12.19ZM123.35 28.94L123.35 20.35C123.35 17.27 128.88 16.57 130.56 19.65L135.68 17.58C133.67 13.15 130 11.86 126.95 11.86C121.97 11.86 117.05 14.75 117.05 20.35L117.05 28.94C117.05 34.6 121.97 37.43 126.84 37.43C129.98 37.43 133.72 35.89 135.8 31.85L130.31 29.33C128.97 32.78 123.35 31.94 123.35 28.94ZM106.42 21.53C104.49 21.11 103.2 20.41 103.12 19.2C103.23 16.32 107.68 16.2 110.28 18.98L114.39 15.81C111.82 12.67 108.91 11.83 105.92 11.83C101.36 11.83 96.93 14.41 96.93 19.29C96.93 24.03 100.57 26.58 104.57 27.2C106.62 27.48 108.88 28.29 108.83 29.69C108.66 32.36 103.17 32.22 100.68 29.19L96.71 32.92C99.03 35.92 102.19 37.43 105.16 37.43C109.72 37.43 114.78 34.8 114.98 29.97C115.26 23.89 110.84 22.34 106.42 21.53ZM87.67 37.1L93.94 37.1L93.94 12.19L87.67 12.19L87.67 37.1ZM193.34 12.19L184.06 12.19L184.06 22.65L190.24 28.24L190.24 18.08L193.54 18.08C195.64 18.08 196.67 19.09 196.67 20.72L196.67 28.49C196.67 30.11 195.69 31.21 193.54 31.21L184.03 31.21L184.03 37.12L193.34 37.12C198.32 37.15 203 34.66 203 28.94L203 20.58C203 14.75 198.32 12.19 193.34 12.19ZM147.77 11.86C142.62 11.86 137.5 14.66 137.5 20.41L137.5 28.91C137.5 34.6 142.65 37.46 147.83 37.46C152.97 37.46 158.09 34.6 158.09 28.91L158.09 20.41C158.09 14.69 152.92 11.86 147.77 11.86ZM151.8 28.91C151.8 30.7 149.78 31.63 147.8 31.63C145.78 31.63 143.77 30.76 143.77 28.91L143.77 20.41C143.77 18.59 145.73 17.61 147.69 17.61C149.73 17.61 151.8 18.48 151.8 20.41L151.8 28.91ZM180.59 20.41C180.45 14.58 176.47 12.22 171.35 12.22L161.42 12.22L161.42 37.12L167.77 37.12L167.77 29.22L168.89 29.22L174.65 37.12L182.49 37.12L175.72 28.57C178.71 27.62 180.59 25.01 180.59 20.41ZM171.47 23.78L167.77 23.78L167.77 18.08L171.47 18.08C175.41 18.08 175.41 23.78 171.47 23.78Z" fill="#9B99AB" fill-opacity="1.000000" fill-rule="nonzero"/>
	</g>
</svg>
