<svg width="91.884155" height="55.748047" viewBox="0 0 91.8842 55.748" fill="none" xmlns="http://www.w3.org/2000/svg" xmlns:xlink="http://www.w3.org/1999/xlink">
	<desc>
			Created with Pixso.
	</desc>
	<defs/>
	<path id="Vector" d="M32.75 32.56C32.9 32.93 32.9 33.44 32.8 33.84C32.77 33.87 32.75 33.87 32.72 33.84C32.65 33.49 32.57 33.14 32.44 32.78C32.37 32.58 32.11 32.4 32.21 32.18C32.26 32.13 32.37 32.13 32.44 32.15C32.57 32.28 32.65 32.4 32.75 32.56ZM36.83 36.09C37.11 36.42 37.31 36.77 37.21 37.2C37.16 37.28 37.19 37.43 37.06 37.46C37.01 37.48 36.96 37.43 36.96 37.38C36.93 37.15 36.93 36.9 36.8 36.72C36.65 36.57 36.47 36.27 36.22 36.27C36.04 36.32 35.91 36.52 35.81 36.65C35.81 36.67 35.78 36.67 35.76 36.65C35.66 36.4 35.86 36.19 35.94 35.99C36.09 35.84 36.06 35.41 36.4 35.54C36.63 35.69 36.68 35.94 36.83 36.09ZM36.29 39.1C36.32 39.25 36.32 39.48 36.17 39.58C36.01 39.63 35.81 39.65 35.63 39.63C35.58 39.6 35.53 39.58 35.55 39.53C35.63 39.3 35.86 39.05 36.12 39C36.17 39 36.27 39 36.29 39.1ZM17.67 29.88C18.28 30.03 18.95 30.03 19.41 30.51C19.66 30.81 19.69 31.34 19.48 31.65C19.13 32.25 18.41 32.56 17.98 33.08C17.55 33.44 17.39 34 17.52 34.55C17.67 35.03 18.16 35.36 18.64 35.38C19.41 35.41 19.97 35.03 20.58 34.68C21.19 34.25 21.75 33.69 22.44 33.51C22.9 33.36 23.41 33.44 23.87 33.26C24.36 33.16 24.74 32.76 25.12 32.4C25.56 32.05 26.07 31.85 26.63 31.87C27.14 31.95 27.42 31.5 27.77 31.19C28.36 30.66 29.13 30.61 29.82 30.31C30.3 30.16 30.68 29.8 31.14 29.58C31.58 29.4 32.16 29.35 32.6 29.52C32.88 29.65 33.18 29.78 33.44 29.98L35.5 31.7C35.53 31.77 35.61 31.82 35.66 31.85C36.24 32.56 36.86 33.24 37.34 34.02C37.49 34.3 37.57 34.58 37.65 34.88C37.75 36.04 38.05 37.05 38.44 38.06C38.54 38.21 38.74 38.34 38.85 38.49C39.18 38.95 39.38 39.53 39.92 39.83L40.22 39.98C40.25 40.01 40.25 40.06 40.22 40.08L40.17 40.13C39.53 40.23 39.05 39.85 38.72 39.4C38.51 39 38.23 38.57 37.77 38.39C37.75 38.39 37.72 38.41 37.72 38.41C37.77 38.57 37.93 38.67 37.98 38.79C38.16 39.07 38.31 39.38 38.39 39.68C38.49 40.01 38.85 40.23 39.13 40.41L39.53 40.61C39.59 40.64 39.61 40.71 39.56 40.76L39.51 40.79C38.82 40.82 38.21 40.59 37.72 40.08C37.62 39.96 37.47 39.85 37.29 39.85C36.98 40.13 36.68 40.39 36.27 40.41C35.84 40.33 35.38 40.33 34.99 40.49C34.64 40.61 34.28 40.76 33.9 40.76C33.72 40.76 33.51 40.69 33.44 40.51C33.44 40.28 33.28 40.03 33.41 39.81L33.67 39.43C33.67 39.38 33.64 39.33 33.59 39.33C33.49 39.3 33.31 39.48 33.26 39.3C33.28 38.92 33.67 38.67 33.92 38.41C33.97 38.11 34.1 37.83 34.33 37.58C34.33 37.56 34.3 37.51 34.25 37.51C33.92 37.56 33.59 37.63 33.23 37.63C32.95 37.78 32.6 37.89 32.26 37.78C32.19 37.73 32.21 37.66 32.24 37.61C32.6 37.13 32.72 36.52 32.62 35.94C32.6 35.91 32.6 35.86 32.54 35.86C32.49 35.86 32.49 35.91 32.47 35.94C32.39 36.5 32.21 36.92 31.91 37.41C31.68 37.63 31.32 37.63 31.01 37.71C30.94 37.73 30.86 37.81 30.86 37.89C30.86 38.09 30.99 38.21 31.06 38.39L31.73 39.6C31.75 39.93 31.6 40.26 31.52 40.56C31.55 40.61 31.6 40.59 31.65 40.56C31.88 40.36 32.03 40.08 32.14 39.78C32.16 39.65 32.11 39.5 32.06 39.4L31.37 38.04C31.42 37.96 31.52 37.96 31.6 37.94C31.75 37.94 31.91 38.01 32.06 38.06C32.21 38.47 32.39 38.9 32.67 39.25C32.72 39.48 32.8 39.78 32.65 39.96C32.49 40.26 32.34 40.51 32.14 40.79C31.96 40.97 31.7 40.94 31.45 40.97L31.37 40.97C30.76 41.3 30.12 41.5 29.46 41.7C29.18 41.83 28.85 41.72 28.62 41.55C28.39 41.37 28.28 41.12 28.13 40.89C27.95 40.66 27.67 40.87 27.47 40.74C27.29 40.46 27.11 40.18 26.96 39.88C26.96 39.81 26.96 39.73 27.03 39.68C27.26 39.6 27.52 39.6 27.77 39.58C28 39.55 28.26 39.6 28.41 39.75C28.72 40.11 28.85 40.59 29.3 40.82C29.66 40.84 29.97 40.74 30.27 40.59C30.45 40.49 30.66 40.33 30.66 40.11C30.63 39.65 30.33 39.3 29.94 39.05C29.56 38.84 29.15 38.57 28.87 38.21C28.72 38.01 28.69 37.78 28.62 37.58C28.59 37.53 28.49 37.53 28.46 37.56C28.31 37.68 28.44 37.91 28.44 38.06C28.46 38.16 28.51 38.29 28.46 38.36C28.23 38.54 27.93 38.44 27.65 38.47C27.09 38.44 26.55 38.21 25.96 38.26C25.4 38.29 24.64 38.67 24.23 38.11C24.02 37.58 24.08 36.95 24.18 36.42C24.18 36.37 24.13 36.32 24.08 36.32C24.02 36.29 23.97 36.32 23.95 36.37C23.79 36.9 23.77 37.48 23.64 38.04C23.44 38.52 23.08 39.02 22.6 39.27C22.16 39.5 21.65 39.58 21.12 39.63C20.15 39.65 19.25 39.83 18.64 40.66C18.59 40.74 18.51 40.82 18.54 40.92C18.57 40.94 18.64 40.97 18.67 40.94C19.33 40.21 20.17 39.91 21.14 39.96C22.06 39.96 22.98 39.81 23.57 39.02C23.72 38.84 23.82 38.67 23.95 38.47C24.05 38.47 24.13 38.59 24.2 38.64C24.23 38.92 24 39.1 23.9 39.33C23.77 39.58 23.64 39.88 23.39 40.03C23.08 40.11 22.83 40.31 22.54 40.46C22.26 40.59 21.91 40.64 21.58 40.56C21.17 40.49 20.61 40.39 20.2 40.56C19.99 40.69 19.82 40.92 19.61 41.04C19.33 41.17 19.08 41.4 18.74 41.37C18.51 41.32 18.23 41.17 18.03 41.37C17.77 41.6 17.72 42 17.39 42.15C17.01 42.36 16.6 42.15 16.22 42.13C16.27 41.75 16.32 41.4 16.58 41.12C16.73 41.09 16.86 41.07 16.98 40.97C17.14 40.84 17.24 40.66 17.34 40.49C17.67 40.28 18.06 40.13 18.26 39.78C18.41 39.45 18.41 39.15 18.67 38.84L18.79 38.79L19.48 38.74C19.76 38.62 20.02 38.49 20.27 38.29C20.35 38.21 20.38 38.09 20.35 37.96C20.22 37.63 20.12 37.41 20.04 37.05C19.97 36.7 20.02 36.34 19.97 35.94C19.94 35.91 19.92 35.84 19.87 35.84C19.41 35.94 18.97 36.07 18.46 35.99C17.77 35.91 17.06 35.46 16.81 34.78C16.58 34.2 16.63 33.36 17.06 32.88C17.47 32.38 17.98 32 18.49 31.57C18.57 31.52 18.57 31.42 18.59 31.34C18.59 31.24 18.49 31.17 18.41 31.12C18.11 31.04 17.75 31.14 17.44 31.01C16.91 30.84 16.5 30.33 16.42 29.78C16.4 29.52 16.45 29.32 16.58 29.12C16.98 29.47 17.29 29.78 17.67 29.88ZM16.14 41.17L16.14 41.25C16.01 41.55 15.94 41.9 15.84 42.25C15.61 42.23 15.4 42.15 15.22 42.08C15.17 42.03 15.22 41.98 15.22 41.93C15.45 41.72 15.38 41.47 15.43 41.19C15.45 41.04 15.61 40.92 15.76 40.84C15.94 40.87 16.04 41.04 16.14 41.17ZM17.26 40.11C17.14 40.36 16.96 40.66 16.68 40.82C16.58 40.84 16.45 40.84 16.35 40.79C16.3 40.74 16.19 40.69 16.19 40.59C16.22 40.49 16.17 40.36 16.27 40.31C16.47 40.18 16.68 40.06 16.88 39.88C16.93 39.85 17.03 39.83 17.06 39.88C17.16 39.96 17.24 40.01 17.26 40.11ZM30.04 40.01C30.07 40.11 30.22 40.23 30.12 40.33C29.92 40.49 29.69 40.59 29.41 40.56C29.2 40.41 29.23 40.13 29.05 39.93C29 39.78 28.77 39.78 28.82 39.63L28.9 39.58C29.18 39.58 29.46 39.58 29.74 39.53C30.02 39.5 29.94 39.83 30.04 40.01ZM46.17 35.89C46.32 36.09 46.45 36.29 46.55 36.55C46.57 36.6 46.55 36.65 46.52 36.7C46.5 36.75 46.45 36.8 46.37 36.75C46.19 36.7 46.22 36.42 45.99 36.44C45.83 36.44 45.73 36.57 45.61 36.65C45.38 36.85 45.07 37.05 45.02 37.35C44.97 37.46 44.99 37.63 44.89 37.68C44.84 37.71 44.76 37.66 44.76 37.61C44.74 37.2 44.87 36.82 45.15 36.55C45.43 36.32 45.63 35.99 45.86 35.71C46.01 35.69 46.12 35.79 46.17 35.89ZM46.27 39.25C46.32 39.35 46.42 39.48 46.34 39.6C46.24 39.68 46.06 39.63 45.94 39.63C45.78 39.55 45.73 39.35 45.73 39.17C45.73 39.12 45.73 39.1 45.78 39.05C45.96 39.05 46.14 39.1 46.27 39.25ZM50.09 31.52C50.17 31.62 50.09 31.72 50.04 31.8C49.69 32.13 49.25 32.48 49 32.88C48.9 33.01 48.82 33.16 48.77 33.31C48.77 33.34 48.74 33.34 48.72 33.34C48.64 33.14 48.74 32.91 48.79 32.71C48.97 32.23 49.38 31.77 49.81 31.44C49.87 31.42 50.04 31.39 50.09 31.52ZM51.55 29.9C51.83 30.08 51.93 30.46 52.26 30.53C52.82 30.66 53.39 30.79 53.9 31.04C54.25 31.22 54.58 31.47 54.92 31.75C55.22 31.9 55.6 31.9 55.94 32C56.42 32.13 56.8 32.48 57.24 32.76C57.8 33.19 58.59 33.14 59.23 33.41C60.25 33.74 61.06 34.53 62.01 34.98C62.49 35.23 63.23 35.33 63.72 35.06C64.05 34.83 64.25 34.53 64.18 34.1C64 33.06 62.85 32.53 62.31 31.67C62.21 31.47 62.14 31.19 62.19 30.96C62.39 30.46 62.93 30.18 63.39 30C63.74 29.83 64.2 29.88 64.53 29.68C64.66 29.6 64.76 29.5 64.84 29.42C64.92 29.42 64.92 29.5 64.94 29.55C65.04 30.16 64.94 30.79 64.41 31.14C64.2 31.29 63.95 31.34 63.72 31.39C63.51 31.47 63.1 31.32 63.13 31.67C63.18 31.85 63.33 31.95 63.46 32.08C64.18 32.66 64.84 33.41 64.92 34.32C64.94 35.03 64.46 35.64 63.84 35.94C63.39 36.12 62.82 36.19 62.34 36.07C62.21 36.04 62.01 35.91 61.91 36.09C61.88 36.29 62.01 36.44 62.01 36.62C62.06 36.95 62.06 37.38 61.96 37.71C61.91 37.96 61.65 38.26 61.88 38.52C62.11 38.87 62.57 38.77 62.95 38.82C63.16 38.84 63.23 39.07 63.28 39.22C63.36 39.43 63.36 39.65 63.44 39.81C63.44 40.18 63.87 40.33 64.07 40.59C64.33 40.87 64.56 41.34 64.99 41.32C65.15 41.62 65.22 41.9 65.27 42.25L65.22 42.31C64.86 42.31 64.38 42.41 64.12 42.15C63.82 41.95 63.72 41.4 63.26 41.55C63.05 41.7 62.77 41.75 62.54 41.65C62.31 41.57 62.16 41.37 61.96 41.25C61.34 40.79 60.53 40.56 59.74 40.74C59.28 40.87 58.92 40.54 58.56 40.33C58.08 40.13 57.95 39.63 57.85 39.2L57.77 38.67C57.77 38.62 57.82 38.57 57.88 38.54L57.95 38.54C58.23 39.17 58.77 39.88 59.46 40.11C60.09 40.36 60.68 40.03 61.37 40.16C62.01 40.23 62.52 40.64 63 41.02C63.05 41.02 63.08 40.99 63.1 40.94L63.1 40.89C62.52 40.16 61.7 39.78 60.76 39.85C59.97 40.01 59.2 39.75 58.74 39.1C58.49 38.72 58.31 38.32 58.23 37.89C58.16 37.38 58.05 36.82 57.88 36.37C57.82 36.34 57.77 36.29 57.72 36.32L57.67 36.4C57.75 36.87 57.9 37.46 57.72 37.96C57.59 38.36 57.19 38.52 56.8 38.54C56.42 38.57 56.06 38.49 55.66 38.49C54.74 38.47 53.92 38.82 52.98 38.74C53.05 38.52 53.21 38.29 53.13 38.04C53.1 37.99 53.03 37.99 52.98 37.99C52.8 38.09 52.82 38.32 52.72 38.47C52.52 38.79 52.14 39.1 51.75 39.17C51.47 39.38 51.22 39.65 50.99 39.91C50.91 39.98 50.91 40.13 50.94 40.23C51.12 40.69 51.65 40.74 52.06 40.87C52.26 40.89 52.44 40.82 52.54 40.64C52.72 40.36 52.75 39.91 53.16 39.85L54.05 39.85C54.13 39.88 54.18 39.93 54.23 40.01L54.2 40.13C54 40.36 53.92 40.69 53.67 40.84C53.51 40.89 53.33 40.84 53.23 40.97C53.18 41.27 53.1 41.6 52.8 41.75C52.57 41.95 52.24 41.85 51.98 41.77C51.5 41.6 51.01 41.5 50.53 41.34C50.32 41.3 50.25 41.04 50.02 40.99C49.81 40.94 49.58 41.09 49.41 40.92C49.3 40.69 49.25 40.54 49.2 40.28C49.13 40.13 49.07 39.96 49.05 39.78C49.02 39.63 49.05 39.53 49.1 39.4L49.76 38.21C49.81 38.14 49.87 38.06 49.94 38.04C50.09 38.06 50.27 38.14 50.43 38.21L50.4 38.29L49.71 39.33C49.56 39.65 49.71 40.03 49.87 40.31C49.89 40.33 49.92 40.39 49.94 40.36C49.92 40.16 49.89 39.96 49.94 39.73C49.99 39.53 50.12 39.35 50.22 39.17L50.76 38.39C50.81 38.26 50.81 38.06 50.71 37.94C50.48 37.71 50.15 37.63 49.94 37.33C49.51 36.75 49.46 36.07 49.41 35.33C49.41 35.28 49.36 35.21 49.28 35.18C49.23 35.16 49.18 35.23 49.15 35.26C49.02 35.74 49.1 36.32 49.23 36.75C49.3 37.08 49.46 37.41 49.61 37.71C49.64 37.76 49.58 37.83 49.53 37.86C49.18 37.89 48.82 37.86 48.49 37.81C48.03 37.73 47.7 37.38 47.31 37.1C47.26 37.08 47.24 37.13 47.21 37.15C47.31 37.66 47.88 37.96 48.05 38.41C48.16 38.79 48.54 39.07 48.62 39.48C48.62 39.53 48.56 39.6 48.51 39.63C48.39 39.65 48.26 39.58 48.13 39.65C48.11 39.88 48.26 40.11 48.16 40.31C48.03 40.51 47.85 40.74 47.62 40.74C47.16 40.59 46.7 40.39 46.24 40.26C45.91 40.23 45.58 40.28 45.27 40.31C44.97 40.26 44.76 39.98 44.53 39.83C44.46 39.81 44.38 39.81 44.33 39.85C43.82 40.36 43.26 40.92 42.49 40.89C42.44 40.89 42.42 40.84 42.42 40.79L42.42 40.74C42.75 40.44 43.16 40.13 43.31 39.7C43.41 39.35 43.72 39.1 43.85 38.77C43.87 38.72 43.82 38.69 43.77 38.67L43.69 38.72C43.31 39.1 43.03 39.53 42.75 39.93C42.47 40.21 42.06 40.39 41.63 40.28C41.57 40.26 41.57 40.18 41.6 40.13C43.18 39.17 43.36 37.46 43.79 35.89C44.1 34.85 44.33 33.79 45.15 32.96C46.37 31.62 47.9 30.84 49.25 29.68C49.46 29.5 49.66 29.32 49.92 29.32C50.58 29.27 51.09 29.52 51.55 29.9ZM66.11 41.07C66.24 41.25 66.19 41.52 66.24 41.72C66.27 41.88 66.47 42 66.37 42.15L65.81 42.33C65.71 42.33 65.76 42.2 65.71 42.15C65.66 41.83 65.58 41.6 65.48 41.3C65.45 41.12 65.63 40.99 65.76 40.89C65.89 40.84 65.99 40.99 66.11 41.07ZM64.81 39.93C65.02 40.11 65.3 40.23 65.45 40.46C65.48 40.56 65.4 40.66 65.35 40.74C65.27 40.82 65.17 40.87 65.04 40.87C64.92 40.87 64.81 40.79 64.74 40.69C64.61 40.49 64.43 40.31 64.38 40.11C64.46 39.98 64.64 39.78 64.81 39.93ZM52.52 39.73C52.49 39.98 52.42 40.21 52.31 40.44C52.24 40.59 52.01 40.54 51.85 40.51C51.7 40.46 51.45 40.44 51.42 40.21C51.4 40.01 51.5 39.81 51.6 39.65C51.83 39.63 52.11 39.68 52.34 39.63C52.44 39.63 52.52 39.65 52.52 39.73Z" fill="#9B99AB" fill-opacity="1.000000" fill-rule="evenodd"/>
	<path id="Vector" d="M0 55.46L3.54 55.46L3.54 54.73L0.81 54.73L0.81 52.26L3.44 52.26L3.44 51.52L0.81 51.52L0.81 49.71L3.54 49.71L3.54 48.97L0 48.97L0 55.46ZM7.01 55.46L7.83 55.46L7.83 50.61L12.78 55.74L12.78 48.97L11.96 48.97L11.96 53.77L7.01 48.64L7.01 55.46ZM16.3 55.46L19.82 55.46L19.82 54.73L17.11 54.73L17.11 52.26L19.74 52.26L19.74 51.52L17.11 51.52L17.11 49.71L19.82 49.71L19.82 48.97L16.3 48.97L16.3 55.46ZM25.17 52.64C26.12 52.53 26.75 51.75 26.75 50.82C26.75 50.18 26.45 49.58 25.89 49.25C25.38 48.95 24.74 48.95 24.15 48.95L23.16 48.95L23.16 55.46L23.97 55.46L23.97 52.71L24.31 52.71L26.24 55.46L27.24 55.46L25.17 52.64ZM23.97 49.68L24.2 49.68C25.02 49.68 25.99 49.83 25.99 50.84C25.99 51.88 25.07 52.03 24.25 52.03L24 52.03L24 49.68L23.97 49.68ZM33.13 52.18L33.13 52.91L34.84 52.91C34.82 53.97 33.72 54.83 32.7 54.83C31.27 54.83 30.15 53.54 30.15 52.18C30.15 50.72 31.29 49.53 32.77 49.53C33.59 49.53 34.38 49.96 34.84 50.59L35.43 50.03C34.79 49.23 33.77 48.77 32.75 48.77C30.86 48.77 29.33 50.31 29.33 52.18C29.33 53.97 30.81 55.57 32.65 55.57C34.48 55.57 35.76 54.2 35.76 52.41L35.76 52.16L33.13 52.16L33.13 52.18ZM40.25 52.64L40.25 55.46L41.06 55.46L41.06 52.64L43.21 48.97L42.26 48.97L40.66 51.75L39.02 48.97L38.08 48.97L40.25 52.64ZM48.85 55.46L50.17 55.46C52.24 55.46 53.9 54.4 53.9 52.18C53.9 50.01 52.21 48.95 50.2 48.95L48.85 48.95L48.85 55.46ZM49.66 49.71L49.94 49.71C51.63 49.71 53.05 50.31 53.05 52.23C53.05 54.13 51.6 54.73 49.94 54.73L49.66 54.73L49.66 49.71ZM59.02 52.64C59.97 52.53 60.6 51.75 60.6 50.82C60.6 50.18 60.3 49.58 59.74 49.25C59.23 48.95 58.59 48.95 58 48.95L57.01 48.95L57.01 55.46L57.82 55.46L57.82 52.71L58.16 52.71L60.09 55.46L61.09 55.46L59.02 52.64ZM57.82 49.68L58.05 49.68C58.87 49.68 59.84 49.83 59.84 50.84C59.84 51.88 58.92 52.03 58.11 52.03L57.85 52.03L57.85 49.68L57.82 49.68ZM63.67 48.97L64.48 48.97L64.48 55.49L63.67 55.49L63.67 48.97ZM67.77 55.46L68.59 55.46L68.59 50.61L73.51 55.74L73.51 48.97L72.7 48.97L72.7 53.77L67.77 48.64L67.77 55.46ZM77.65 51.78L77.65 48.97L76.83 48.97L76.83 55.46L77.65 55.46L77.65 52.76L77.98 52.43L80.45 55.46L81.55 55.46L78.54 51.88L81.5 48.97L80.43 48.97L77.65 51.78ZM89.97 0.27C90.43 0.27 90.81 0.42 91.11 0.75C91.42 1.06 91.6 1.46 91.6 1.89C91.6 2.34 91.45 2.72 91.11 3.03C90.81 3.35 90.4 3.51 89.97 3.51C89.51 3.51 89.12 3.35 88.79 3.03C88.49 2.72 88.31 2.32 88.31 1.89C88.31 1.43 88.46 1.06 88.79 0.75C89.12 0.45 89.51 0.27 89.97 0.27ZM91.88 1.89C91.88 1.38 91.7 0.93 91.32 0.55C90.94 0.2 90.5 0 89.97 0C89.43 0 89 0.17 88.61 0.55C88.23 0.93 88.05 1.36 88.05 1.89C88.05 2.42 88.23 2.85 88.61 3.23C89 3.61 89.43 3.78 89.97 3.78C90.5 3.78 90.94 3.61 91.32 3.23C91.68 2.87 91.88 2.42 91.88 1.89ZM90.48 1.49C90.48 1.64 90.4 1.76 90.25 1.81C90.17 1.84 90.04 1.86 89.89 1.86L89.56 1.86L89.56 1.11L89.86 1.11C90.07 1.11 90.22 1.13 90.32 1.18C90.43 1.26 90.48 1.33 90.48 1.49ZM89.2 0.85L89.2 2.92L89.56 2.92L89.56 2.12L89.84 2.12C90.04 2.12 90.17 2.14 90.25 2.19C90.37 2.27 90.45 2.42 90.45 2.67L90.45 2.92L90.81 2.92L90.78 2.9C90.78 2.87 90.76 2.85 90.76 2.8L90.76 2.5C90.76 2.4 90.71 2.29 90.65 2.17C90.58 2.07 90.45 1.99 90.3 1.97C90.43 1.94 90.53 1.91 90.6 1.86C90.73 1.79 90.81 1.64 90.81 1.46C90.81 1.21 90.71 1.03 90.48 0.93C90.35 0.88 90.17 0.85 89.89 0.85L89.2 0.85Z" fill="#9B99AB" fill-opacity="1.000000" fill-rule="nonzero"/>
</svg>
