<svg width="154.000000" height="56.000000" viewBox="0 0 154 56" fill="none" xmlns="http://www.w3.org/2000/svg" xmlns:xlink="http://www.w3.org/1999/xlink">
	<desc>
			Created with Pixso.
	</desc>
	<defs>
		<clipPath id="clip110_7321">
			<rect id="pioneer 1" rx="0.000000" width="153.000000" height="55.000000" transform="translate(0.500000 0.500000)" fill="white" fill-opacity="0"/>
		</clipPath>
	</defs>
	<rect id="pioneer 1" rx="0.000000" width="153.000000" height="55.000000" transform="translate(0.500000 0.500000)" fill="#FFFFFF" fill-opacity="0"/>
	<g clip-path="url(#clip110_7321)">
		<path id="Vector" d="M25.79 22.85C25.23 24.45 21.65 26.13 12.87 24.14L14.01 29.33C22.79 30.93 28 29.62 30.97 26.49C33.18 24.17 33.61 21.18 31.8 18.88C29.88 16.46 25.64 14.69 20.29 14.69C12.63 14.69 7.17 16.92 4.14 25.26L0.07 36.47L7.2 36.47L11.25 25.13C12.91 20.47 16.41 19.69 20.29 19.69C24.36 19.69 26.32 21.37 25.79 22.85ZM96.37 27.77L96.09 27.65C97.69 27.01 99.42 26.67 101.14 26.67C102.18 26.67 104.5 26.85 105.48 27.41C105.72 27.54 105.94 27.75 105.82 28.02C105.39 28.99 99.03 28.94 96.37 27.77ZM109.39 25.15C107.7 24.25 104.92 23.53 102.21 23.42C96.57 23.18 90.15 25.11 88.87 29.66C88.13 32.28 90.66 35.81 97.26 36.82C100.56 37.32 105.8 37.2 109.57 35.95L110.98 32.06C103.33 34.69 93.33 33.93 93.66 29.99C97.36 32.36 102.77 32.14 106.77 31.48C113.69 30.35 113.59 27.4 109.39 25.15ZM121.07 27.77L120.79 27.65C122.39 27.01 124.12 26.67 125.84 26.67C126.88 26.67 129.2 26.85 130.18 27.41C130.42 27.54 130.63 27.75 130.52 28.02C130.09 28.99 123.73 28.94 121.07 27.77ZM134.08 25.15C132.4 24.25 129.62 23.53 126.91 23.42C121.27 23.18 114.85 25.11 113.57 29.66C112.83 32.28 115.36 35.81 121.96 36.82C125.25 37.32 130.5 37.2 134.27 35.95L135.68 32.06C128.03 34.69 118.03 33.93 118.37 29.99C122.07 32.36 127.47 32.14 131.47 31.48C138.39 30.35 138.29 27.4 134.08 25.15ZM139.29 28.49L136.46 36.47L142.98 36.47L145.16 30.33C145.69 28.77 146.15 27.6 148.05 27.6L152.63 27.6L153.92 23.93L145.48 23.93C142.65 23.93 140.37 25.33 139.29 28.49ZM29.98 36.47L36.74 36.47L41.31 23.93L34.55 23.93L29.98 36.47ZM73.82 29.72C74.45 28 76.35 27.2 78.01 27.2C79.66 27.2 81.24 28.17 80.62 29.85L78.21 36.47L84.74 36.47L87.19 29.75C88.46 26.25 85.71 23.36 79.54 23.36C72.68 23.36 68.8 25.6 67.3 29.72L64.84 36.48L71.36 36.48L73.82 29.72ZM53.69 27.32C56.33 27.44 58.45 28.76 58.08 30.49C57.71 32.16 55.14 33.29 52.48 33.17C49.84 33.06 47.72 31.73 48.09 30C48.46 28.34 51.03 27.21 53.69 27.32ZM54.61 23.42C47.82 23.13 41.76 26.04 40.95 29.76C40.14 33.43 44.73 36.79 51.56 37.07C58.35 37.36 64.41 34.45 65.22 30.73C66.02 27.07 61.43 23.71 54.61 23.42Z" fill="#9B99AB" fill-opacity="1.000000" fill-rule="nonzero"/>
	</g>
</svg>
