<svg width="120.000000" height="56.000000" viewBox="0 0 120 56" fill="none" xmlns="http://www.w3.org/2000/svg" xmlns:xlink="http://www.w3.org/1999/xlink">
	<desc>
			Created with Pixso.
	</desc>
	<defs>
		<clipPath id="clip110_7313">
			<rect id="dollar-1 1" rx="0.000000" width="119.000000" height="55.000000" transform="translate(0.500000 0.500000)" fill="white" fill-opacity="0"/>
		</clipPath>
	</defs>
	<rect id="dollar-1 1" rx="0.000000" width="119.000000" height="55.000000" transform="translate(0.500000 0.500000)" fill="#FFFFFF" fill-opacity="0"/>
	<g clip-path="url(#clip110_7313)">
		<path id="Vector" d="M17.63 12.25C17.35 12.43 17.3 13.4 17.33 16.97C17.35 20.04 17.3 21.52 17.1 21.64C16.95 21.74 16.18 21.54 15.4 21.22C14.26 20.74 13.53 20.64 11.61 20.64C8.09 20.67 6.11 21.47 3.72 23.86C2.34 25.24 1.77 26.16 0.87 28.38C-0.01 30.53 0.37 34.55 1.69 37.22C2.52 38.89 4.71 40.97 6.74 41.99C8.46 42.84 8.54 42.86 11.61 42.86C14.9 42.86 15.25 42.76 17.98 41.12C18.75 40.67 18.75 40.67 19.47 41.34C20.67 42.44 22.2 43.01 23.67 42.94L24.97 42.86L24.97 37.9L23.97 37.4L22.97 36.87L22.9 24.79C22.87 16.37 22.75 12.6 22.57 12.35C22.25 11.98 18.2 11.88 17.63 12.25ZM12.96 26.36C16.45 27.41 18.23 31.18 16.65 34.2C14.8 37.75 10.61 38.57 7.89 35.95C6.14 34.3 5.56 32.53 6.11 30.5C6.74 28.16 9.01 26.26 11.51 26.04C11.66 26.01 12.31 26.16 12.96 26.36ZM53.34 12.38C53.14 12.6 53.09 16.85 53.11 27.78L53.19 42.86L58.58 42.86L58.58 27.66C58.58 15.48 58.51 12.4 58.26 12.25C57.68 11.88 53.66 11.98 53.34 12.38ZM63.58 12.38C63.38 12.6 63.33 16.85 63.35 27.78L63.43 42.86L68.92 42.86L69 27.76C69.05 13.78 69.02 12.63 68.62 12.33C68.02 11.91 63.95 11.93 63.58 12.38ZM89.78 20.14C89.6 20.37 89.53 20.82 89.6 21.27C89.9 22.72 89.25 23.22 88.38 22.24C85.86 19.47 79.61 20.27 76.02 23.81C74.37 25.44 73.44 27.24 72.89 29.86C72.54 31.55 72.54 31.95 72.89 33.78C73.59 37.52 75.87 40.47 79.29 42.09C80.81 42.81 81.09 42.86 83.91 42.86C86.78 42.86 86.98 42.84 88.53 42.07C89.43 41.62 90.33 41.12 90.58 40.94C90.9 40.69 91.12 40.77 91.85 41.41C93.02 42.44 94.67 43.04 96.04 42.94L97.14 42.86L97.22 40.34L97.29 37.8L96.32 37.42C95.62 37.15 95.3 36.82 95.17 36.35C95.07 35.97 95.02 32.2 95.05 27.93C95.07 21.59 95.02 20.17 94.75 20C94.55 19.87 93.42 19.77 92.25 19.77C90.63 19.77 90 19.87 89.78 20.14ZM86.18 26.68C88.13 27.58 89.53 29.73 89.53 31.83C89.53 33.48 89.03 34.58 87.65 35.87C85.53 37.95 82.56 38.02 80.29 36.05C78.89 34.87 78.29 33.6 78.29 31.88C78.29 29.93 79.06 28.51 80.81 27.18C82.33 26.04 84.36 25.84 86.18 26.68ZM101.51 20.27C101.34 20.59 101.29 24.46 101.31 31.8L101.39 42.86L106.63 42.86L106.76 36.62C106.91 29.58 106.91 29.56 108.83 27.71C110.13 26.46 111.6 25.94 113.15 26.19C113.78 26.29 114.03 26.19 114.48 25.64C114.75 25.26 115 24.79 115 24.61C115 24.41 115.1 24.06 115.25 23.81C115.38 23.59 115.67 22.97 115.9 22.44C116.3 21.54 116.3 21.49 115.85 21.14C115.23 20.69 112.63 20.42 110.98 20.64C109.81 20.82 109.53 20.97 108.38 22.17C107.68 22.91 107.03 23.44 106.93 23.34C106.83 23.26 106.76 22.54 106.76 21.77C106.76 20.99 106.63 20.24 106.46 20.07C106.26 19.87 105.34 19.77 103.96 19.77C102.06 19.77 101.74 19.82 101.51 20.27ZM35.33 20.89C33.16 21.52 31.81 22.29 30.34 23.76C28.62 25.51 27.72 27.16 27.19 29.61C26.82 31.3 26.79 31.8 27.07 33.48C27.79 37.9 30.56 41.19 34.66 42.51C35.91 42.94 36.71 43.01 38.7 42.94C40.9 42.84 41.4 42.74 42.95 42.01C47.45 39.87 49.89 35.17 49.14 30.03C48.52 25.84 45.97 22.84 41.48 21.04C40.25 20.54 36.88 20.47 35.33 20.89ZM40.25 26.54C41.23 26.89 42.88 28.58 43.35 29.71C44.05 31.33 43.97 32.88 43.1 34.4C40.8 38.4 35.93 38.5 33.31 34.62C32.11 32.85 32.19 30.6 33.49 28.71C35.03 26.49 37.76 25.61 40.25 26.54ZM113.18 37C111.55 38.02 111 40.32 112 41.91C113 43.59 114.8 44.11 116.55 43.26C120 41.62 118.82 36.45 115 36.52C114.38 36.52 113.58 36.72 113.18 37Z" fill="#9B99AB" fill-opacity="1.000000" fill-rule="nonzero"/>
	</g>
</svg>
