<svg width="125.000000" height="56.000000" viewBox="0 0 125 56" fill="none" xmlns="http://www.w3.org/2000/svg" xmlns:xlink="http://www.w3.org/1999/xlink">
	<desc>
			Created with Pixso.
	</desc>
	<defs>
		<clipPath id="clip110_7299">
			<rect id="sullivan-university 1" rx="0.000000" width="124.000000" height="55.000000" transform="translate(0.500000 0.500000)" fill="white" fill-opacity="0"/>
		</clipPath>
	</defs>
	<rect id="sullivan-university 1" rx="0.000000" width="124.000000" height="55.000000" transform="translate(0.500000 0.500000)" fill="#FFFFFF" fill-opacity="0"/>
	<g clip-path="url(#clip110_7299)">
		<path id="Vector" d="M16 25.1C16.14 24.4 16.18 23.28 16.23 21.74L16.98 21.74C17.03 22.76 17.07 23.42 17.17 23.6C17.21 23.79 17.45 23.98 17.73 24.16C18.06 24.4 18.48 24.58 19.04 24.77C19.55 24.91 20.07 25 20.58 25C21.33 25 21.99 24.82 22.59 24.49C23.2 24.16 23.67 23.7 23.95 23.18C24.23 22.63 24.37 22.03 24.37 21.41C24.37 20.98 24.29 20.55 24.14 20.15C24 19.82 23.81 19.54 23.53 19.31C23.19 19.11 22.83 18.97 22.45 18.89C21.91 18.8 21.36 18.72 20.82 18.66C20.02 18.56 19.32 18.42 18.76 18.33C18.01 18.09 17.45 17.82 17.12 17.49C16.75 17.21 16.47 16.79 16.23 16.27C16 15.76 15.9 15.25 15.9 14.64C15.9 13.8 16.14 13.01 16.56 12.26C17.04 11.48 17.74 10.87 18.57 10.49C19.41 10.06 20.39 9.88 21.42 9.88C22.03 9.88 22.69 9.92 23.44 10.11C24.14 10.25 24.84 10.53 25.45 10.81C25.36 11.24 25.3 11.68 25.26 12.12C25.21 12.49 25.21 13.1 25.17 13.84L24.42 13.84C24.42 12.73 24.37 12.12 24.32 12.02C24.13 11.74 23.88 11.5 23.58 11.33C22.83 10.91 22.08 10.67 21.24 10.67C20.21 10.67 19.37 11 18.71 11.6C18.1 12.26 17.78 13.1 17.78 14.08C17.78 14.69 17.92 15.2 18.15 15.53C18.34 15.85 18.76 16.13 19.32 16.32C19.74 16.46 20.4 16.6 21.28 16.69C22.17 16.83 23.01 16.97 23.72 17.11C24.42 17.3 24.93 17.53 25.26 17.81C25.54 18.09 25.82 18.47 26.06 18.93C26.24 19.4 26.34 19.91 26.34 20.52C26.34 22.02 25.77 23.28 24.56 24.35C23.34 25.42 21.8 25.98 19.93 25.98C18.57 25.99 17.22 25.69 16 25.1ZM27.46 10.86L27.46 10.16C28.63 10.21 29.75 10.21 30.78 10.21C31.81 10.21 32.79 10.21 33.82 10.16L33.82 10.86C32.98 10.86 32.46 10.91 32.32 10.95C32.14 11.05 32 11.09 31.95 11.23C31.85 11.37 31.76 11.7 31.76 12.26C31.76 12.45 31.71 13.47 31.67 15.39L31.67 19.4C31.67 20.94 31.81 22.02 31.99 22.48C32.18 22.98 32.5 23.42 32.93 23.74C33.26 23.98 33.73 24.16 34.29 24.3C34.85 24.49 35.46 24.54 36.16 24.54C36.95 24.54 37.7 24.44 38.31 24.26C38.92 24.02 39.39 23.79 39.71 23.51C40.04 23.23 40.27 22.9 40.41 22.53C40.55 22.2 40.69 21.69 40.74 21.08C40.83 20.48 40.88 19.68 40.88 18.75L40.88 15.39C40.88 14.41 40.84 13.43 40.79 12.49C40.79 11.79 40.74 11.37 40.65 11.23C40.52 11.12 40.38 11.02 40.23 10.95C40.09 10.91 39.57 10.86 38.73 10.86L38.73 10.16C39.95 10.21 40.79 10.21 41.35 10.21C41.86 10.21 42.75 10.21 44.06 10.16L44.06 10.86C43.22 10.86 42.71 10.91 42.52 10.95C42.38 11.02 42.25 11.12 42.15 11.23C42.05 11.37 42 11.7 42 12.26C41.96 12.45 41.91 13.47 41.91 15.39L41.91 19.03C41.91 20.8 41.77 22.06 41.54 22.81C41.26 23.51 40.79 24.12 40.13 24.68C39.62 25.1 39.01 25.38 38.22 25.61C37.37 25.86 36.48 25.99 35.6 25.98C34.48 25.98 33.49 25.84 32.65 25.56C31.86 25.28 31.2 24.96 30.78 24.54C30.36 24.07 30.08 23.65 29.89 23.18C29.7 22.58 29.61 21.59 29.61 20.19L29.61 15.39C29.61 14.41 29.56 13.43 29.52 12.49C29.52 11.79 29.47 11.37 29.38 11.23C29.28 11.14 29.14 11.05 29 10.95C28.81 10.91 28.3 10.86 27.46 10.86ZM45.79 25.66L45.79 25.05C46.11 24.93 46.4 24.77 46.68 24.58C46.78 24.49 46.82 24.4 46.87 24.3C46.92 24.12 46.96 23.7 46.96 23C47.01 22.02 47.06 21.41 47.06 21.22L47.06 15.39C47.06 14.41 47.01 13.43 46.96 12.49C46.96 11.79 46.92 11.37 46.82 11.23C46.73 11.14 46.64 11.05 46.45 10.95C46.26 10.91 45.75 10.86 44.91 10.86L44.91 10.16C46.68 10.21 47.81 10.21 48.23 10.21C48.69 10.21 49.72 10.21 51.36 10.16L51.36 10.86C50.47 10.86 49.96 10.91 49.77 10.95C49.58 11.05 49.44 11.09 49.4 11.23C49.3 11.37 49.26 11.7 49.21 12.26C49.21 12.45 49.21 13.47 49.16 15.39L49.16 22.67C49.16 23.46 49.16 24.07 49.21 24.54C50.05 24.58 50.85 24.63 51.69 24.63C53.7 24.63 55.15 24.49 55.94 24.21C56.04 24.02 56.13 23.74 56.23 23.46L56.65 21.69L57.39 21.69C57.25 22.76 57.07 24.07 56.93 25.52C56.65 25.56 56.41 25.61 56.23 25.61C55.85 25.61 55.24 25.66 54.45 25.66L47.95 25.56C47.24 25.56 46.54 25.61 45.79 25.66ZM59.45 25.66L59.45 25.05C59.92 24.86 60.2 24.68 60.34 24.58C60.43 24.49 60.48 24.4 60.48 24.3C60.57 24.12 60.62 23.7 60.62 23C60.67 22.02 60.72 21.41 60.72 21.22L60.72 15.39C60.72 14.41 60.67 13.43 60.62 12.49C60.62 11.79 60.58 11.37 60.48 11.23C60.39 11.14 60.29 11.05 60.11 10.95C59.92 10.91 59.41 10.86 58.56 10.86L58.56 10.16C60.34 10.21 61.46 10.21 61.89 10.21C62.35 10.21 63.38 10.21 65.02 10.16L65.02 10.86C64.13 10.86 63.62 10.91 63.43 10.95C63.24 11.05 63.1 11.09 63.06 11.23C62.96 11.37 62.91 11.7 62.87 12.26C62.87 12.45 62.82 13.47 62.82 15.39L62.82 22.67C62.82 23.46 62.82 24.07 62.87 24.54C63.71 24.58 64.51 24.63 65.35 24.63C67.36 24.63 68.81 24.49 69.6 24.21C69.7 24.02 69.79 23.74 69.88 23.46L70.31 21.69L71.05 21.69C70.91 22.76 70.73 24.07 70.59 25.52C70.31 25.56 70.07 25.61 69.88 25.61C69.51 25.61 68.9 25.66 68.11 25.66L61.61 25.56C60.9 25.56 60.2 25.61 59.45 25.66ZM78.77 24.96L78.77 25.66C77.23 25.61 76.24 25.56 75.73 25.56L72.41 25.66L72.41 24.96C73.25 24.91 73.76 24.86 73.95 24.82C74.09 24.77 74.22 24.69 74.33 24.58C74.37 24.4 74.47 24.07 74.47 23.51C74.47 23.37 74.51 22.34 74.56 20.43L74.56 15.39C74.56 14.41 74.51 13.43 74.47 12.49C74.47 11.79 74.42 11.37 74.33 11.23C74.2 11.12 74.06 11.02 73.91 10.95C73.76 10.91 73.25 10.86 72.41 10.86L72.41 10.16C73.76 10.21 74.84 10.21 75.59 10.21C76.34 10.21 77.37 10.21 78.77 10.16L78.77 10.86C77.93 10.86 77.41 10.91 77.23 10.95C77.04 11.05 76.94 11.09 76.85 11.23C76.81 11.37 76.71 11.7 76.71 12.26C76.71 12.45 76.67 13.47 76.62 15.39L76.62 20.43C76.62 21.41 76.66 22.34 76.66 23.32C76.71 23.98 76.76 24.4 76.81 24.54C76.9 24.68 77.05 24.78 77.23 24.82C77.41 24.86 77.93 24.91 78.77 24.96ZM87.05 25.75C86.86 25.1 86.4 23.88 85.69 22.11L82 12.91C81.58 11.93 81.34 11.37 81.25 11.23C81.2 11.14 81.11 11.09 80.97 11.05C80.83 10.95 80.41 10.91 79.75 10.86L79.75 10.16C81.11 10.21 82.09 10.21 82.7 10.21C83.31 10.21 84.29 10.21 85.69 10.16L85.69 10.86C84.8 10.86 84.29 10.91 84.15 10.91C84.01 10.95 83.92 10.95 83.87 11.05C83.82 11.1 83.79 11.16 83.77 11.23C83.77 11.33 83.82 11.51 83.96 11.84C84.19 12.65 84.46 13.44 84.76 14.22L88.17 22.81L91.02 15.71C91.45 14.69 91.82 13.57 92.19 12.35C92.38 11.84 92.43 11.51 92.43 11.37C92.43 11.23 92.33 11.09 92.15 11.05C92.01 11 91.45 10.91 90.46 10.86L90.46 10.16C91.59 10.21 92.38 10.21 92.94 10.21C93.5 10.21 94.3 10.21 95.28 10.16L95.28 10.86C94.77 10.86 94.44 10.91 94.3 10.95C94.21 11 94.11 11.09 94.02 11.28C93.92 11.37 93.69 11.98 93.18 13.05L89.81 21.41L88.97 23.56C88.78 23.98 88.64 24.35 88.5 24.68C88.4 24.96 88.31 25.33 88.17 25.75L87.05 25.75ZM98.32 12.96L101.04 19.54L95.52 19.54L98.32 12.96ZM92.76 25.56C93.41 25.56 94.3 25.61 95.56 25.66L95.56 24.96C94.86 24.91 94.39 24.91 94.11 24.82C93.97 24.82 93.83 24.72 93.74 24.63C93.68 24.57 93.65 24.48 93.64 24.4C93.64 24.16 93.79 23.79 93.97 23.28L95.14 20.48L101.46 20.48L102.81 23.84C102.91 24.07 102.95 24.3 102.95 24.44C102.95 24.53 102.92 24.61 102.86 24.68C102.81 24.77 102.67 24.82 102.49 24.86C102.35 24.91 101.83 24.91 101.04 24.96L101.04 25.66L104.54 25.57C104.97 25.57 105.76 25.61 106.88 25.66L106.88 24.96C106.32 24.91 105.95 24.86 105.81 24.82C105.62 24.73 105.48 24.54 105.34 24.3C105.11 23.84 104.59 22.72 103.84 20.94L99.21 10.02L98.46 10.02C97.53 12.35 96.87 13.85 96.59 14.55L93.83 20.66C93.04 22.48 92.57 23.46 92.43 23.75C92.19 24.21 92.05 24.54 91.91 24.63C91.77 24.73 91.68 24.82 91.54 24.86C91.4 24.91 91.02 24.91 90.46 24.96L90.46 25.66C91.31 25.61 92.05 25.56 92.76 25.56ZM108 25.66L108 24.96C108.8 24.91 109.27 24.86 109.55 24.77C109.64 24.72 109.69 24.63 109.74 24.54C109.83 24.4 109.88 24.02 109.92 23.42C109.97 22.44 109.97 21.64 109.97 20.94L109.97 12.07C109.97 11.84 109.97 11.7 109.92 11.61C109.88 11.47 109.74 11.33 109.55 11.14C109.41 11 109.27 10.95 109.08 10.91C108.89 10.86 108.52 10.86 107.96 10.86L107.96 10.16C109.22 10.21 110.02 10.21 110.35 10.21C110.86 10.21 111.42 10.21 111.98 10.16C112.59 10.95 113.01 11.56 113.29 11.93L115.54 14.69L118.76 18.66C119.84 19.91 120.68 20.94 121.29 21.64C121.71 22.11 122.04 22.48 122.32 22.76L122.32 14.83C122.32 14.13 122.27 13.29 122.23 12.35C122.23 11.75 122.18 11.37 122.09 11.23C122.03 11.13 121.95 11.05 121.85 11C121.62 10.91 121.1 10.86 120.36 10.86L120.36 10.16C121.2 10.21 122.09 10.21 122.97 10.21C123.77 10.21 124.57 10.21 125.22 10.16L125.22 10.86C124.47 10.86 123.96 10.91 123.72 11C123.63 11.05 123.58 11.14 123.53 11.23C123.44 11.37 123.39 11.75 123.35 12.4C123.3 13.33 123.3 14.17 123.3 14.87L123.3 20.1C123.3 21.18 123.3 23.14 123.35 26.03L122.23 25.7L121.94 25.66C121.94 25.61 121.9 25.61 121.85 25.57L121.43 25.15C120.82 24.44 120.4 23.93 120.12 23.56L118.72 21.78L110.95 12.4L110.95 20.9C110.95 21.6 111 22.44 111.05 23.42C111.05 24.02 111.09 24.4 111.19 24.54C111.24 24.64 111.32 24.72 111.42 24.77C111.65 24.86 112.17 24.91 112.92 24.96L112.92 25.66C112.26 25.61 111.56 25.56 110.76 25.56C109.92 25.56 109.03 25.61 108 25.66ZM21.19 35.84C21.19 38.17 20.39 39.01 18.52 39.01C16.65 39.01 15.86 38.22 15.86 35.79L15.86 30.56L16.56 30.56L16.56 35.84C16.56 37.61 16.98 38.5 18.52 38.5C20.11 38.5 20.49 37.61 20.49 35.84L20.49 30.56L21.19 30.56L21.19 35.84ZM34.24 38.17C34.19 36.86 34.19 34.29 34.19 30.56L34.9 30.56L34.9 38.87L33.87 38.87C31.71 35.09 30.31 32.57 29.61 31.26L29.56 31.26C29.61 32.57 29.61 35.14 29.61 38.87L28.91 38.87L28.91 30.56L29.94 30.56C32.09 34.34 33.54 36.86 34.24 38.17ZM42.66 30.56L43.36 30.56L43.36 38.87L42.66 38.87L42.66 30.56ZM53.28 38.31C53.62 37.08 53.98 35.84 54.35 34.62L55.57 30.56L56.27 30.56L53.7 38.87L52.86 38.87L50.28 30.56L50.99 30.56L52.2 34.67C52.59 35.87 52.94 37.09 53.28 38.31ZM66.8 34.25L66.8 34.81L63.85 34.81L63.85 38.31L67.73 38.31L67.73 38.87L63.15 38.87L63.15 30.56L67.59 30.56L67.59 31.12L63.85 31.12L63.85 34.25L66.8 34.25ZM75.59 34.76L75.59 31.12L76.85 31.12C78.54 31.12 79.05 31.77 79.05 32.94C79.05 34.11 78.35 34.76 77.18 34.76L75.59 34.76ZM77.69 35.23C78.82 35.09 79.75 34.39 79.75 32.89C79.75 31.21 78.63 30.56 76.9 30.56L74.89 30.56L74.89 38.87L75.59 38.87L75.59 35.32L77.04 35.32L79.28 38.87L80.17 38.87L77.69 35.23ZM90.37 31.96C90.18 31.49 89.76 30.93 88.83 30.93C88.31 30.93 87.85 31.12 87.56 31.4C87.33 31.59 87.19 31.91 87.19 32.33C87.19 32.8 87.38 33.17 87.66 33.41C87.99 33.69 88.31 33.87 89.2 34.29C90 34.71 90.42 34.9 90.74 35.23C91.03 35.55 91.31 36.02 91.31 36.67C91.31 37.24 91.07 37.79 90.7 38.22C90.28 38.59 89.67 39.01 88.78 39.01C87.33 39.01 86.63 38.35 86.35 37.51L87 37.42C87.24 37.93 87.8 38.5 88.78 38.5C89.44 38.5 89.86 38.22 90.18 37.89C90.42 37.61 90.6 37.19 90.6 36.77C90.6 36.21 90.37 35.88 90.14 35.6C89.86 35.41 89.53 35.23 88.64 34.76C87.66 34.29 87.38 34.11 87.1 33.83C86.77 33.5 86.49 33.03 86.49 32.38C86.49 31.87 86.68 31.4 87.05 31.03C87.47 30.65 88.03 30.42 88.87 30.42C90.18 30.42 90.79 31.07 91.03 31.87L90.37 31.96ZM98.42 30.56L99.12 30.56L99.12 38.87L98.42 38.87L98.42 30.56ZM111.56 31.12L109.13 31.12L109.13 38.87L108.43 38.87L108.43 31.12L106.04 31.12L106.04 30.56L111.56 30.56L111.56 31.12ZM120.82 35.46L120.82 38.87L120.12 38.87L120.12 35.46L117.64 30.56L118.44 30.56L119.47 32.71C119.79 33.45 120.12 34.16 120.49 34.9C120.87 34.16 121.2 33.41 121.52 32.71L122.55 30.56L123.3 30.56L120.82 35.46Z" fill="#9B99AB" fill-opacity="1.000000" fill-rule="evenodd"/>
		<path id="Vector" d="M16 28.08L123.35 28.08" stroke="#9B99AB" stroke-opacity="1.000000" stroke-width="8.430346"/>
		<path id="Vector" d="M11.97 10.58C10.52 7.41 11.46 14.22 10.43 16.37C9.64 18.1 9.26 18.7 7.77 20.48C6.78 21.55 5.1 24.07 4.4 24.45C4.16 22.02 5.71 19.5 6.88 17.26C7.3 16.32 9.73 12.21 10.24 8.62C10.99 3.11 7.2 -1.37 7.44 0.26C7.86 2.46 8.28 4.14 7.95 5.96C7.02 11.42 5.89 12.03 3.98 15.72C3.13 17.21 -0.23 22.16 0 26.73C0.33 33.13 4.26 36.77 5.47 37.7C6.22 38.17 5.1 34.44 5.38 32.29C5.89 29.25 7.02 27.11 8.7 25.1C10.85 22.53 12.44 20.43 12.82 16.93C13.1 14.41 11.97 10.53 11.97 10.58Z" fill="#9B99AB" fill-opacity="1.000000" fill-rule="evenodd"/>
		<path id="Vector" d="M8.61 38.87C8.79 35.98 9.22 34.01 10.34 32.52C11.04 31.5 12.26 29.21 12.07 26.92C12.02 25.7 10.53 21.83 10.57 24.54C10.48 25.7 10.57 26.26 10.24 27.34C9.26 30.19 6.46 31.45 6.36 34.76C6.27 36.77 8.47 40.23 8.61 38.87ZM16.37 47.65L16.37 47.6C16.79 47.65 17.17 47.65 17.59 47.65C17.87 47.65 18.29 47.65 18.66 47.6L18.71 47.65L18.66 47.88L18.62 47.93C18.43 47.93 18.06 47.93 18.01 48.07C17.92 48.25 17.68 49.37 17.5 50.59C18.57 49.65 20.02 48.11 20.07 47.93C20.07 47.83 20.07 47.74 20.11 47.65L20.11 47.6C20.3 47.65 20.49 47.65 20.72 47.65C20.91 47.65 21.14 47.65 21.33 47.6L21.38 47.65L21.33 47.88L21.28 47.93C20.96 47.93 20.82 47.93 20.35 48.35L18.29 50.4L20.21 52.83C20.58 53.3 20.72 53.34 21.1 53.34L21.14 53.39L21.1 53.62L21.05 53.67C20.82 53.62 20.63 53.62 20.4 53.62C20.16 53.62 19.97 53.62 19.74 53.67C19.41 53.16 18.34 51.75 17.5 50.73C17.26 51.85 17.12 52.92 17.12 53.11C17.12 53.25 17.21 53.34 17.82 53.34L17.87 53.39L17.82 53.62L17.78 53.67C17.4 53.62 16.98 53.62 16.61 53.62L15.44 53.62L15.48 53.39L15.53 53.34C15.72 53.34 16.09 53.34 16.19 53.2C16.33 52.87 17.03 48.49 17.03 48.16C17.03 48.02 16.98 47.93 16.33 47.93L16.33 47.88L16.37 47.65ZM24 50.31C24 51.01 23.11 51.57 22.31 51.66C22.59 50.68 22.78 49.89 23.53 49.89C23.81 49.89 24 50.03 24 50.31ZM21.47 52.6C21.47 53.39 22.03 53.76 22.55 53.76C23.25 53.76 24.09 53.16 24.32 52.92L24.37 52.88L24.32 52.69L24.28 52.69C23.9 53.02 23.39 53.3 22.97 53.3C22.59 53.3 22.22 53.02 22.22 52.36C22.22 52.13 22.27 52.04 22.27 51.9C24.18 51.52 24.79 50.78 24.79 50.17C24.79 49.84 24.56 49.51 23.95 49.51C23.2 49.51 22.31 50.12 22.03 50.54C21.7 51.01 21.47 52.03 21.47 52.6ZM25.03 50.4L25.07 50.35C25.26 50.21 26.1 49.56 26.48 49.56C26.71 49.56 26.8 49.66 26.8 49.84C26.8 50.08 26.71 50.31 26.43 51.33L26.47 51.38C27.04 50.35 28.16 49.56 28.72 49.56C29.05 49.56 29.14 49.75 29.14 49.93C29.14 50.12 29 50.73 28.81 51.38C28.67 52.08 28.44 52.74 28.44 52.92C28.44 53.02 28.53 53.11 28.58 53.11C28.67 53.11 29 52.92 29.28 52.69L29.33 52.69L29.42 52.83L29.42 52.87C28.95 53.25 28.3 53.72 27.97 53.72C27.79 53.72 27.6 53.58 27.6 53.3C27.6 52.78 28.25 50.96 28.25 50.4C28.25 50.26 28.16 50.21 28.07 50.21C27.69 50.21 26.85 51.01 26.52 51.71C26.29 52.17 26.15 52.92 26.05 53.58C25.77 53.62 25.49 53.62 25.26 53.72L25.21 53.67C25.49 52.83 25.91 50.82 25.91 50.35C25.91 50.26 25.87 50.21 25.77 50.21C25.68 50.21 25.4 50.35 25.16 50.54L25.12 50.54L25.03 50.4ZM31.95 52.74L31.95 52.78C31.2 53.43 30.69 53.71 30.36 53.71C30.03 53.71 30.03 53.48 30.03 53.39C30.03 53.11 30.45 51.24 30.64 50.35L29.89 50.35L29.89 50.17L29.94 50.17C30.17 50.07 30.55 49.93 30.73 49.79L30.97 48.35C31.29 48.21 31.48 48.11 31.71 48.02L31.81 48.11C31.67 48.44 31.57 49.05 31.39 49.89C31.86 49.89 32.23 49.84 32.37 49.79L32.42 49.89C32.37 49.98 32.32 50.21 32.28 50.31L32.28 50.35C31.99 50.35 31.62 50.31 31.29 50.31C30.87 52.55 30.83 52.78 30.83 52.92C30.83 53.06 30.87 53.11 30.97 53.11C31.11 53.11 31.39 52.97 31.81 52.64L31.85 52.64L31.95 52.74ZM32.37 50.4L32.37 50.35C33.26 49.7 33.63 49.51 33.87 49.51C34.05 49.51 34.19 49.65 34.19 49.84C34.19 50.31 33.54 52.27 33.54 52.83C33.54 53.02 33.59 53.06 33.68 53.06C34.01 53.06 35.04 51.89 35.22 51.33C35.46 50.68 35.55 50.21 35.69 49.7C35.83 49.7 36.3 49.61 36.39 49.51L36.49 49.61C36.25 50.12 35.74 52.59 35.74 52.87C35.74 53.01 35.78 53.06 35.88 53.06C35.97 53.06 36.16 53.02 36.53 52.69L36.58 52.69L36.67 52.83L36.67 52.87C36.16 53.34 35.5 53.72 35.18 53.72C34.99 53.72 34.89 53.62 34.89 53.39C34.89 53.2 34.94 52.83 35.22 51.89L35.17 51.85C34.75 52.6 33.72 53.72 33.07 53.72C32.84 53.72 32.7 53.58 32.7 53.3C32.7 52.78 33.26 51.01 33.26 50.4C33.26 50.26 33.21 50.21 33.12 50.21C33.02 50.21 32.84 50.31 32.46 50.59L32.46 50.54L32.37 50.4ZM40.09 52.83L40.04 52.92C39.29 53.48 38.78 53.76 38.26 53.76C37.51 53.76 37.14 53.16 37.14 52.41C37.14 51.94 37.33 50.96 37.8 50.35C37.98 50.21 38.03 50.17 38.5 49.89C39.06 49.56 39.29 49.47 39.57 49.47C39.9 49.47 40.18 49.61 40.37 49.7L40.37 49.75C40.32 50.08 40.23 50.4 40.23 50.77L40.18 50.82L39.95 50.82L39.95 50.77L39.95 50.12C39.9 50.08 39.53 49.93 39.2 49.93C38.54 49.93 38.36 50.35 38.22 50.77C38.03 51.38 37.94 51.94 37.94 52.27C37.94 52.6 37.98 53.3 38.64 53.3C38.92 53.3 39.25 53.2 39.99 52.64L40.04 52.64L40.09 52.83ZM44.39 52.92L44.39 52.97C43.97 53.34 43.36 53.72 43.22 53.72C42.99 53.72 42.89 53.53 42.19 51.52C41.77 51.94 41.58 52.22 41.4 53.53C41.16 53.58 40.84 53.62 40.65 53.72L40.56 53.67C40.88 52.64 41.72 48.77 41.72 48.21C41.72 47.93 41.68 47.93 40.98 47.93L40.98 47.69L41.02 47.69C41.44 47.69 42.1 47.51 42.61 47.32L42.71 47.41C42.52 47.93 42.1 50.21 41.77 51.62L41.77 51.66C43.03 50.08 43.78 49.51 44.34 49.51C44.44 49.51 44.53 49.51 44.62 49.56C44.58 49.75 44.48 49.93 44.48 50.17C44.39 50.17 44.3 50.12 44.16 50.12C43.64 50.12 43.32 50.31 42.75 50.87C43.41 52.87 43.5 53.06 43.69 53.06C43.88 53.06 44.02 52.97 44.25 52.83L44.3 52.83L44.39 52.92ZM44.58 50.4L44.58 50.35C45.09 49.93 45.7 49.51 45.98 49.51C46.17 49.51 46.35 49.61 46.35 50.03C46.35 50.59 46.12 51.8 46.12 52.69C46.12 52.88 46.21 52.97 46.31 52.97C46.59 52.97 47.1 52.36 47.43 51.76C47.8 51.06 48.04 49.84 48.09 49.7C48.51 49.61 48.6 49.61 48.88 49.51L48.93 49.61C48.37 51.05 47.76 54 47.1 54.88C46.82 55.26 46.03 56.05 45.37 56.05C45.27 56.05 45.16 56.03 45.07 55.99C44.97 55.95 44.88 55.89 44.81 55.82C44.73 55.75 44.68 55.66 44.64 55.56C44.6 55.46 44.58 55.36 44.58 55.26C44.72 55.16 44.9 55.07 45.04 54.93L45.14 54.98L45.14 55.07C45.14 55.3 45.28 55.63 45.65 55.63C46.12 55.63 46.54 55.02 46.78 54.28L47.38 52.32L47.34 52.32C46.59 53.39 46.17 53.72 45.79 53.72C45.51 53.72 45.37 53.58 45.37 53.16C45.37 52.32 45.56 51.48 45.56 50.59C45.56 50.26 45.51 50.17 45.33 50.17C45.23 50.17 44.95 50.35 44.72 50.54L44.58 50.4ZM50.24 48.77C50.19 48.3 50.19 48.11 50.19 47.97C50.19 47.65 50.33 47.51 50.61 47.51C50.89 47.51 51.03 47.65 51.03 47.97C51.03 48.11 50.99 48.3 50.94 48.77L50.85 49.61C50.85 49.89 50.75 49.93 50.61 49.93C50.47 49.93 50.38 49.89 50.33 49.61L50.24 48.77ZM54.12 50.78L54.07 50.78C54.07 50.59 54.12 50.31 54.12 50.26C54.12 50.12 53.61 49.98 53.28 49.98C52.62 49.98 52.44 50.35 52.44 50.59C52.44 51.66 54.45 50.73 54.45 52.13C54.45 52.64 54.26 52.97 53.7 53.34C53.28 53.62 53.04 53.72 52.58 53.72C52.24 53.71 51.9 53.63 51.59 53.48L51.59 53.43C51.69 53.11 51.73 52.69 51.78 52.36L51.83 52.32L52.02 52.32L52.02 52.97C52.06 53.06 52.53 53.3 52.95 53.3C53.47 53.3 53.84 53.06 53.84 52.5C53.84 52.04 53.51 51.94 52.9 51.9C52.3 51.8 51.83 51.57 51.83 50.96C51.83 50.12 53 49.51 53.65 49.51C53.93 49.51 54.21 49.56 54.49 49.7L54.54 49.75C54.4 50.17 54.4 50.26 54.35 50.78L54.12 50.78ZM62.31 49.14L62.31 49.09C62.31 48.91 62.31 48.44 62.26 48.4C61.82 48.12 61.32 47.98 60.81 47.97C59.03 47.97 58.47 49.51 58.47 51.06C58.47 52.78 59.55 53.2 60.39 53.2C61.28 53.2 61.88 52.92 62.4 52.6L62.45 52.64C62.45 52.74 62.4 52.87 62.4 53.01C61.79 53.43 61.14 53.76 60.2 53.76C58.42 53.76 57.53 52.78 57.53 51.05C57.53 48.63 59.55 47.51 61.14 47.51C61.79 47.51 62.31 47.65 62.82 47.83L62.82 47.88C62.68 48.3 62.59 48.72 62.59 49.09L62.54 49.14L62.31 49.14L62.31 49.14ZM63.8 52.92C63.8 51.94 64.22 50.35 64.46 50.17C64.55 50.08 64.79 49.98 65.07 49.98C65.35 49.98 65.58 50.03 65.81 50.17C65.63 51.9 64.13 53.11 63.9 53.11C63.8 53.11 63.8 53.06 63.8 52.92ZM66.28 49.75C65.91 49.56 65.63 49.51 65.44 49.51C64.74 49.51 63.99 50.17 63.85 50.31C63.52 50.73 63.01 51.94 63.01 53.06C63.01 53.58 63.1 53.72 63.38 53.72C64.04 53.72 65.16 52.41 65.53 51.75C65.25 52.6 65.11 53.2 65.11 53.43C65.11 53.62 65.21 53.72 65.44 53.72C65.72 53.72 66.19 53.48 66.89 52.87L66.89 52.83L66.8 52.69C66.51 52.97 66.24 53.11 66.1 53.11C66 53.11 65.95 53.06 65.95 52.97C65.95 52.69 66.56 49.98 66.75 49.61L66.56 49.51L66.28 49.75ZM67.26 50.4L67.26 50.35C67.55 50.08 68.39 49.51 68.76 49.51C68.95 49.51 69.04 49.65 69.04 49.84C69.04 50.03 68.85 50.77 68.71 51.29L68.71 51.33C69.09 50.54 69.79 49.51 70.4 49.51C70.49 49.51 70.54 49.56 70.58 49.56L70.58 49.61C70.5 49.92 70.45 50.25 70.45 50.59L70.31 50.59C70.21 50.45 70.12 50.4 69.98 50.4C69.37 50.4 68.48 51.71 68.29 53.57C67.87 53.62 67.78 53.62 67.5 53.71L67.41 53.67C67.64 53.25 68.15 50.82 68.15 50.35C68.15 50.26 68.15 50.21 68.01 50.21C67.87 50.21 67.69 50.31 67.36 50.59L67.26 50.4ZM73.16 50.31C73.16 51.01 72.27 51.57 71.47 51.66C71.76 50.68 71.94 49.89 72.69 49.89C72.97 49.89 73.16 50.03 73.16 50.31ZM70.63 52.6C70.63 53.39 71.19 53.76 71.71 53.76C72.41 53.76 73.25 53.16 73.49 52.92L73.53 52.88L73.49 52.69L73.44 52.69C73.07 53.02 72.55 53.3 72.13 53.3C71.76 53.3 71.38 53.02 71.38 52.36C71.38 52.13 71.43 52.04 71.43 51.9C73.34 51.52 73.95 50.78 73.95 50.17C73.95 49.84 73.72 49.51 73.16 49.51C72.36 49.51 71.47 50.12 71.19 50.54C70.87 51.01 70.63 52.03 70.63 52.6ZM76.85 50.31C76.85 51.01 75.96 51.57 75.17 51.66C75.45 50.68 75.64 49.89 76.39 49.89C76.67 49.89 76.85 50.03 76.85 50.31ZM74.33 52.6C74.33 53.39 74.89 53.76 75.4 53.76C76.1 53.76 76.95 53.16 77.18 52.92L77.23 52.88L77.13 52.69C76.76 53.02 76.24 53.3 75.82 53.3C75.45 53.3 75.07 53.02 75.07 52.36C75.07 52.13 75.07 52.04 75.12 51.9C76.99 51.52 77.6 50.78 77.6 50.17C77.6 49.84 77.41 49.51 76.81 49.51C76.06 49.51 75.17 50.12 74.89 50.54C74.56 51.01 74.33 52.03 74.33 52.6ZM77.84 50.4L77.84 50.35C78.16 50.08 78.96 49.51 79.33 49.51C79.52 49.51 79.61 49.65 79.61 49.84C79.61 50.03 79.43 50.77 79.29 51.29L79.29 51.33C79.66 50.54 80.36 49.51 80.97 49.51C81.06 49.51 81.16 49.56 81.16 49.56L81.16 49.61C81.11 49.93 81.02 50.31 81.02 50.59L80.88 50.59C80.78 50.45 80.69 50.4 80.55 50.4C79.94 50.4 79.05 51.71 78.86 53.57C78.44 53.62 78.35 53.62 78.07 53.71L77.98 53.67C78.26 53.25 78.72 50.82 78.72 50.35C78.72 50.26 78.72 50.21 78.59 50.21C78.49 50.21 78.26 50.31 77.98 50.59L77.93 50.59L77.84 50.4ZM87.61 47.65L87.66 47.6C88.03 47.6 88.41 47.65 88.78 47.65C89.15 47.65 89.53 47.6 89.9 47.6L89.95 47.65L89.9 47.88L89.86 47.93C89.25 47.93 89.25 47.93 89.11 48.77C89.06 49.09 88.41 52.78 88.41 53.06C88.41 53.25 88.55 53.3 89.16 53.34L89.16 53.39L89.11 53.62L89.11 53.67C88.83 53.62 88.55 53.62 88.27 53.62L87.42 53.62C87.52 53.25 87.61 52.87 87.66 52.55C86.86 53.43 86.16 53.76 85.41 53.76C84.52 53.76 83.87 53.34 83.87 52.41C83.87 51.99 84.01 51.33 84.1 50.63L84.29 49.7C84.34 49.24 84.48 48.44 84.48 48.21C84.48 47.93 84.43 47.93 83.82 47.93L83.78 47.88L83.82 47.65L83.87 47.6C84.01 47.6 84.52 47.65 84.85 47.65C85.09 47.65 85.41 47.65 85.51 47.6C85.13 49.42 84.71 51.57 84.71 52.27C84.71 53.06 85.41 53.2 85.74 53.2C86.54 53.2 87.19 52.64 87.75 52.03C87.89 51.1 88.36 48.39 88.36 48.21C88.36 47.93 88.17 47.93 87.61 47.93L87.57 47.88L87.61 47.65ZM89.86 50.4L89.86 50.35C90.04 50.21 90.88 49.56 91.26 49.56C91.49 49.56 91.59 49.66 91.59 49.84C91.59 50.08 91.49 50.31 91.26 51.33L91.26 51.38C91.82 50.35 92.94 49.56 93.55 49.56C93.83 49.56 93.93 49.75 93.93 49.93C93.93 50.12 93.79 50.73 93.6 51.38C93.46 52.08 93.27 52.74 93.27 52.92C93.27 53.02 93.32 53.11 93.41 53.11C93.5 53.11 93.78 52.92 94.07 52.69L94.11 52.69L94.21 52.83L94.21 52.87C93.74 53.25 93.13 53.72 92.76 53.72C92.57 53.72 92.43 53.58 92.43 53.3C92.43 52.78 93.04 50.96 93.08 50.4C93.08 50.26 92.99 50.21 92.85 50.21C92.48 50.21 91.63 51.01 91.31 51.71C91.12 52.17 90.93 52.92 90.84 53.58C90.56 53.62 90.32 53.62 90.04 53.72L90 53.67C90.28 52.83 90.7 50.82 90.7 50.35C90.7 50.26 90.65 50.21 90.6 50.21C90.47 50.21 90.18 50.35 89.95 50.54L89.9 50.54L89.86 50.4ZM94.63 50.4L94.63 50.35C95.09 49.98 95.8 49.56 96.13 49.56C96.26 49.56 96.45 49.66 96.45 49.84C96.45 50.26 95.8 52.36 95.8 52.88C95.8 53.02 95.84 53.11 95.94 53.11C96.08 53.11 96.26 52.97 96.64 52.69L96.73 52.88L96.73 52.92C96.03 53.44 95.61 53.72 95.28 53.72C95.05 53.72 94.95 53.58 94.95 53.34C94.95 52.92 95.56 50.96 95.56 50.4C95.56 50.26 95.52 50.17 95.42 50.17C95.33 50.17 95.14 50.31 94.72 50.59L94.63 50.4ZM96.45 47.6C96.64 47.6 96.83 47.79 96.83 48.02C96.83 48.25 96.64 48.67 96.22 48.67C96.17 48.67 96.12 48.66 96.07 48.65C96.03 48.63 95.99 48.6 95.95 48.57C95.92 48.53 95.89 48.49 95.87 48.44C95.85 48.4 95.84 48.35 95.84 48.3C95.84 47.97 96.13 47.6 96.45 47.6ZM99.82 50.08C100.01 49.89 100.19 49.7 100.33 49.56C100.38 49.51 100.43 49.51 100.57 49.51C100.9 49.51 101.13 49.75 101.13 50.31C101.13 51.85 99.72 53.76 98.6 53.76C97.99 53.76 97.62 53.25 97.62 52.59C97.62 51.66 98.46 50.54 98.84 50.17L98.84 50.12C98.64 50.18 98.43 50.21 98.23 50.21C98.04 50.21 97.95 50.17 97.81 50.17C97.67 50.17 97.57 50.31 97.39 50.68L97.34 50.73L97.2 50.73L97.15 50.68C97.39 50.12 97.43 49.93 97.53 49.66C97.71 49.61 97.85 49.61 97.95 49.61C98.09 49.61 98.51 49.66 98.84 49.66C99.02 49.66 99.21 49.61 99.35 49.61L99.45 49.7C98.7 50.54 98.37 51.71 98.37 52.36C98.37 53.02 98.7 53.25 99.02 53.25C100.05 53.25 100.47 51.48 100.47 50.68C100.47 50.35 100.33 50.17 100.19 50.17C100.1 50.17 100.01 50.17 99.91 50.21L99.82 50.08ZM104.22 50.31C104.22 51.01 103.28 51.57 102.49 51.66C102.77 50.68 103 49.89 103.75 49.89C104.03 49.89 104.22 50.03 104.22 50.31ZM101.64 52.6C101.64 53.39 102.25 53.76 102.77 53.76C103.42 53.76 104.26 53.16 104.54 52.92L104.54 52.88L104.5 52.69L104.45 52.69C104.08 53.02 103.61 53.3 103.14 53.3C102.77 53.3 102.39 53.02 102.39 52.36C102.39 52.13 102.44 52.04 102.49 51.9C104.36 51.52 104.97 50.78 104.97 50.17C104.97 49.84 104.73 49.51 104.17 49.51C103.42 49.51 102.49 50.12 102.21 50.54C101.92 51.01 101.64 52.03 101.64 52.6ZM105.2 50.4L105.2 50.35C105.48 50.08 106.32 49.51 106.65 49.51C106.88 49.51 106.98 49.65 106.98 49.84C106.98 50.03 106.74 50.77 106.65 51.29L106.65 51.33C106.98 50.54 107.73 49.51 108.33 49.51C108.43 49.51 108.47 49.56 108.52 49.56L108.52 49.61C108.43 49.92 108.38 50.25 108.38 50.59L108.19 50.59C108.15 50.45 108.05 50.4 107.91 50.4C107.3 50.4 106.37 51.71 106.23 53.57C105.81 53.62 105.71 53.62 105.43 53.71L105.34 53.67C105.57 53.25 106.09 50.82 106.09 50.35C106.09 50.26 106.04 50.21 105.95 50.21C105.81 50.21 105.62 50.31 105.29 50.59L105.25 50.59L105.2 50.4ZM110.86 50.78L110.86 50.26C110.86 50.12 110.39 49.98 110.06 49.98C109.36 49.98 109.22 50.35 109.22 50.59C109.22 51.66 111.23 50.73 111.23 52.13C111.23 52.64 111 52.97 110.48 53.34C110.06 53.62 109.78 53.72 109.36 53.72C108.94 53.72 108.57 53.58 108.38 53.48L108.33 53.43C108.43 53.11 108.52 52.69 108.57 52.36L108.57 52.32L108.75 52.32L108.8 52.36L108.8 52.97C108.8 53.06 109.32 53.3 109.69 53.3C110.2 53.3 110.58 53.06 110.58 52.5C110.58 52.04 110.25 51.94 109.69 51.9C109.08 51.8 108.61 51.57 108.61 50.96C108.61 50.12 109.74 49.51 110.39 49.51C110.67 49.51 110.95 49.56 111.28 49.7L111.28 49.75C111.19 50.17 111.19 50.26 111.09 50.78L110.86 50.78ZM111.79 50.4L111.79 50.35C112.26 49.98 112.92 49.56 113.29 49.56C113.43 49.56 113.62 49.66 113.62 49.84C113.62 50.26 112.96 52.36 112.96 52.88C112.96 53.02 113.01 53.11 113.1 53.11C113.2 53.11 113.43 52.97 113.76 52.69L113.81 52.69L113.9 52.88L113.9 52.92C113.2 53.44 112.78 53.72 112.45 53.72C112.21 53.72 112.08 53.58 112.08 53.34C112.08 52.92 112.73 50.96 112.73 50.4C112.73 50.26 112.68 50.17 112.59 50.17C112.5 50.17 112.26 50.31 111.89 50.59L111.84 50.59L111.79 50.4ZM113.57 47.6C113.81 47.6 113.99 47.79 113.99 48.02C113.99 48.25 113.81 48.67 113.38 48.67C113.1 48.67 112.96 48.49 112.96 48.3C112.96 47.97 113.29 47.6 113.57 47.6ZM116.47 52.74L116.47 52.78C115.68 53.43 115.21 53.71 114.88 53.71C114.55 53.71 114.55 53.48 114.55 53.39C114.55 53.11 114.93 51.24 115.12 50.35L114.41 50.35L114.41 50.17L114.46 50.17C114.7 50.07 115.07 49.93 115.21 49.79L115.49 48.35C115.82 48.21 116.01 48.11 116.24 48.02L116.33 48.11C116.19 48.44 116.05 49.05 115.91 49.89C116.33 49.89 116.75 49.84 116.89 49.79L116.94 49.89C116.89 49.98 116.8 50.21 116.8 50.31L116.75 50.35C116.52 50.35 116.15 50.31 115.82 50.31C115.4 52.55 115.35 52.78 115.35 52.92C115.35 53.06 115.4 53.11 115.49 53.11C115.63 53.11 115.87 52.97 116.33 52.64L116.38 52.64L116.47 52.74Z" fill="#9B99AB" fill-opacity="1.000000" fill-rule="evenodd"/>
		<path id="Vector" d="M116.75 50.4L116.75 50.35C117.27 49.93 117.83 49.51 118.16 49.51C118.34 49.51 118.48 49.61 118.48 50.03C118.48 50.59 118.3 51.8 118.3 52.69C118.3 52.87 118.39 52.97 118.48 52.97C118.76 52.97 119.28 52.36 119.61 51.75C119.98 51.05 120.21 49.84 120.21 49.7C120.68 49.61 120.77 49.61 121.06 49.51L121.1 49.61C120.54 51.05 119.93 54 119.28 54.88C119 55.25 118.16 56.05 117.5 56.05C117.13 56.05 116.75 55.72 116.71 55.25C116.89 55.16 117.08 55.07 117.22 54.93L117.31 54.98L117.31 55.07C117.31 55.3 117.45 55.63 117.83 55.63C118.3 55.63 118.72 55.02 118.95 54.27L119.56 52.32L119.51 52.32C118.76 53.39 118.34 53.72 117.92 53.72C117.69 53.72 117.55 53.58 117.55 53.16C117.55 52.32 117.69 51.48 117.69 50.59C117.69 50.26 117.64 50.17 117.5 50.17C117.36 50.17 117.13 50.35 116.89 50.54L116.85 50.54L116.75 50.4Z" fill="#9B99AB" fill-opacity="1.000000" fill-rule="evenodd"/>
	</g>
</svg>
